# xmcd
#
# Track frame offsets:
#	182
#	16697
#	31492
#	45392
#	59502
#	74412
#	90112
#	110290
#	123000
#	139752
#	157735
#
# Disc length: 2292 seconds
#
# Revision: 0
# Processed by: cddbd v1.5.1PL2 Copyright (c) Steve Scherf et al.
# Submitted via: EasyCDDAExtractor 9.1.3.1
#
DISCID=7b08f20b
DTITLE=Bobby Solo - Plein succés
DYEAR=1992
DGENRE=
TTITLE0=Una lacrima sul viso (Dance version)
TTITLE1=Cristina
TTITLE2=San francisco
TTITLE3=Se piangi se ridi
TTITLE4=Siesta
TTITLE5=Gélosia
TTITLE6=Non posso perditi
TTITLE7=Non c'e piu niente da fare
TTITLE8=Tu stai
TTITLE9=Domenica d'agosto
TTITLE10=Una lacrima sul viso (Version slow 90)
EXTD=
EXTT0=
EXTT1=
EXTT2=
EXTT3=
EXTT4=
EXTT5=
EXTT6=
EXTT7=
EXTT8=
EXTT9=
EXTT10=
PLAYORDER=
